<svg xmlns="http://www.w3.org/2000/svg" xmlns:xlink="http://www.w3.org/1999/xlink" fill="none"
    version="1.1" width="200" height="80" viewBox="0 0 200 80">
    <g>
        <g>
            <g>
                <path
                    d="M29.364853250789643,28.35389280319214C29.364853250789643,28.35389280319214,36.73765325078964,28.35389280319214,36.73765325078964,28.35389280319214C36.73765325078964,28.35389280319214,33.97285325078964,52.92989280319214,33.97285325078964,52.92989280319214C33.97285325078964,52.92989280319214,26.600053250789642,52.92989280319214,26.600053250789642,52.92989280319214C26.600053250789642,52.92989280319214,29.364853250789643,28.35389280319214,29.364853250789643,28.35389280319214C29.364853250789643,28.35389280319214,29.364853250789643,28.35389280319214,29.364853250789643,28.35389280319214ZM41.34565325078964,28.35389280319214C41.34565325078964,28.35389280319214,48.71845325078964,28.35389280319214,48.71845325078964,28.35389280319214C48.71845325078964,28.35389280319214,45.95365325078964,52.92989280319214,45.95365325078964,52.92989280319214C45.95365325078964,52.92989280319214,38.580853250789644,52.92989280319214,38.580853250789644,52.92989280319214C38.580853250789644,52.92989280319214,41.34565325078964,28.35389280319214,41.34565325078964,28.35389280319214C41.34565325078964,28.35389280319214,41.34565325078964,28.35389280319214,41.34565325078964,28.35389280319214ZM53.32645325078964,28.35389280319214C53.32645325078964,28.35389280319214,60.699253250789646,28.35389280319214,60.699253250789646,28.35389280319214C60.699253250789646,28.35389280319214,57.934453250789645,52.92989280319214,57.934453250789645,52.92989280319214C57.934453250789645,52.92989280319214,50.56165325078965,52.92989280319214,50.56165325078965,52.92989280319214C50.56165325078965,52.92989280319214,53.32645325078964,28.35389280319214,53.32645325078964,28.35389280319214C53.32645325078964,28.35389280319214,53.32645325078964,28.35389280319214,53.32645325078964,28.35389280319214Z"
                    fill="#409EFF" fill-opacity="1" />
            </g>
            <g>
                <path
                    d="M29.672230005264282,28.35389280319214C29.672230005264282,28.35389280319214,44.110630005264284,28.35389280319214,44.110630005264284,28.35389280319214C44.110630005264284,28.35389280319214,44.110630005264284,35.72669280319214,44.110630005264284,35.72669280319214C44.110630005264284,35.72669280319214,29.672230005264282,35.72669280319214,29.672230005264282,35.72669280319214C29.672230005264282,35.72669280319214,29.672230005264282,28.35389280319214,29.672230005264282,28.35389280319214C29.672230005264282,28.35389280319214,29.672230005264282,28.35389280319214,29.672230005264282,28.35389280319214ZM41.34583000526428,45.557092803192134C41.34583000526428,45.557092803192134,55.78423000526428,45.557092803192134,55.78423000526428,45.557092803192134C55.78423000526428,45.557092803192134,55.78423000526428,52.92989280319214,55.78423000526428,52.92989280319214C55.78423000526428,52.92989280319214,41.34583000526428,52.92989280319214,41.34583000526428,52.92989280319214C41.34583000526428,52.92989280319214,41.34583000526428,45.557092803192134,41.34583000526428,45.557092803192134C41.34583000526428,45.557092803192134,41.34583000526428,45.557092803192134,41.34583000526428,45.557092803192134Z"
                    fill="#409EFF" fill-opacity="1" />
            </g>
            <g>
                <path
                    d="M29.672230005264282,21.902690995788575C29.672230005264282,22.961860995788573,30.092983005264283,23.977650995788572,30.84193000526428,24.726590995788573C31.590870005264282,25.475540995788574,32.60666000526428,25.896290995788576,33.66583000526428,25.896290995788576C34.725000005264285,25.896290995788576,35.74079000526428,25.475540995788574,36.489730005264285,24.726590995788573C37.238680005264285,23.977650995788572,37.659430005264284,22.961860995788573,37.659430005264284,21.902690995788575C37.659430005264284,21.378240995788573,37.55613000526428,20.858930995788576,37.35543000526428,20.374410995788573C37.15474000526428,19.889880995788573,36.86057000526428,19.449630995788574,36.489730005264285,19.078790995788573C36.118890005264284,18.707948995788573,35.678640005264285,18.413782995788573,35.194110005264285,18.213085995788575C34.70959000526428,18.012387995788576,34.190280005264285,17.909090995788574,33.66583000526428,17.909090995788574C33.14138000526428,17.909090995788574,32.622070005264284,18.012387995788576,32.13755000526428,18.213085995788575C31.65302000526428,18.413782995788573,31.212770005264282,18.707948995788573,30.84193000526428,19.078790995788573C30.47108800526428,19.449630995788574,30.17692200526428,19.889880995788573,29.976225005264283,20.374410995788573C29.77552800526428,20.858930995788576,29.672229994212383,21.378240995788573,29.672230005264282,21.902690995788575C29.672230005264282,21.902690995788575,29.672230005264282,21.902690995788575,29.672230005264282,21.902690995788575C29.672230005264282,21.902690995788575,29.672230005264282,21.902690995788575,29.672230005264282,21.902690995788575Z"
                    fill="#409EFF" fill-opacity="1" />
            </g>
        </g>
        <g>
            <g>
                <path
                    d="M74.84,28.42L93.16,28.42L93.16,31.18L74.84,31.18L74.84,28.42ZM111.78,36.66Q110.9,35.72,110.14,34.6L110.14,36.56L107.24000000000001,36.56L107.24000000000001,39.64L104.92,39.64L104.92,36.56L102.06,36.56L102.06,34.46Q101.26,35.620000000000005,100.34,36.7L99.16,34.84L99.16,39.58L96.88,39.58L96.88,30.560000000000002Q96.12,31.72,95.32,32.7L94.5,29.86Q95.6,28.380000000000003,96.73,25.96Q97.86,23.54,98.53999999999999,21.16L100.9,21.6Q100.16,24.12,99.16,26.34L99.16,34.16Q100.74,32.46,101.82,30.65Q102.9,28.84,103.68,26.66L100.22,26.66L100.22,24.36L104.92,24.36L104.92,21.28L107.24000000000001,21.28L107.24000000000001,24.36L112.52000000000001,24.36L112.52000000000001,26.66L108.5,26.66Q110,30.880000000000003,113.36,34.4L111.78,36.66ZM104.92,34.32L104.92,28.7Q103.96000000000001,31.68,102.16,34.32L104.92,34.32ZM107.24000000000001,34.32L109.94,34.32Q108.25999999999999,31.78,107.24000000000001,28.72L107.24000000000001,34.32ZM121.7,22.02Q120.94,24.46,119.82,26.64L119.82,39.56L117.34,39.56L117.34,30.66Q116.62,31.68,115.52000000000001,32.96L114.56,30.3Q116,28.52,117.33,26.009999999999998Q118.66,23.5,119.34,21.259999999999998L121.7,22.02ZM133.12,33.1Q133.12,33.84,133.07,34.92Q133.02,36,132.96,36.58Q132.86,38,132.21,38.65Q131.56,39.3,130.06,39.4Q129.2,39.46,128.3,39.46Q127.42,39.46,126.52000000000001,39.4Q125.47999999999999,39.32,124.86,39.010000000000005Q124.24000000000001,38.7,123.96000000000001,38.019999999999996Q123.68,37.34,123.68,36.18L123.68,33.4Q122.82,34,121.36,34.88L120.08,32.6Q121.97999999999999,31.48,123.68,30.240000000000002L123.68,21.38L126.22,21.38L126.22,28.240000000000002Q128.76,26.04,130.94,23.54L132.76,25.4Q129.54,28.939999999999998,126.22,31.560000000000002L126.22,35.6Q126.22,36.32,126.41,36.6Q126.6,36.879999999999995,127.12,36.94Q127.75999999999999,37,128.36,37Q129,37,129.6,36.94Q130.18,36.879999999999995,130.41,36.6Q130.64,36.32,130.68,35.68L130.74,33.56L130.76,32.54L133.12,33.1ZM145.34,25.02L145.34,36.56L152.88,36.56L152.88,39.04L135.14,39.04L135.14,36.56L142.66,36.56L142.66,25.02L136.34,25.02L136.34,22.44L151.7,22.44L151.7,25.02L145.34,25.02ZM161.04000000000002,34.36L159.66,32.5L159.66,39.68L157.51999999999998,39.68L157.51999999999998,32.86Q156.56,34.9,155.51999999999998,36.46L154.54000000000002,34.22Q156.22,31.72,157.28,28.78L155.14,28.78L155.14,26.46L157.51999999999998,26.46L157.51999999999998,24.62L155.36,24.98L155.16,22.72Q156.56,22.52,158.32,22.16Q160.07999999999998,21.8,161.38,21.42L161.86,23.66Q161.06,23.9,159.66,24.2L159.66,26.46L161.8,26.46L161.8,28.78L159.66,28.78L159.66,29.64Q160.44,30.4,161.2,31.22Q161.95999999999998,32.04,162.28,32.480000000000004L161.04000000000002,34.36ZM162.57999999999998,21.94L172.2,21.94L172.2,28.14L162.57999999999998,28.14L162.57999999999998,21.94ZM164.86,26.08L169.92000000000002,26.08L169.92000000000002,24.04L164.86,24.04L164.86,26.08ZM168.57999999999998,35.2L168.57999999999998,36.96L173.26,36.96L173.26,39.08L161.4,39.08L161.4,36.96L166.18,36.96L166.18,35.2L162.68,35.2L162.68,33.18L166.18,33.18L166.18,31.52L162.4,31.52L162.4,29.42L172.6,29.42L172.6,31.52L168.57999999999998,31.52L168.57999999999998,33.18L172.12,33.18L172.12,35.2L168.57999999999998,35.2Z"
                    fill="#606266" fill-opacity="1" />
            </g>
            <g>
                <path
                    d="M77.32,50.69Q77.91,50.69,78.435,51.015Q78.96,51.34,79.28,51.955Q79.6,52.57,79.6,53.4Q79.6,54.24,79.28,54.855000000000004Q78.96,55.47,78.435,55.79Q77.91,56.11,77.32,56.11Q76.82,56.11,76.365,55.875Q75.91,55.64,75.62,55.18L75.62,58.32L74.77,58.32L74.77,50.81L75.53,50.81Q75.53,51.31,75.58,51.69Q75.86,51.19,76.325,50.94Q76.79,50.69,77.32,50.69ZM77.21,55.31Q77.89,55.31,78.3,54.81Q78.71,54.31,78.71,53.4Q78.71,52.49,78.3,51.99Q77.89,51.49,77.21,51.49Q76.8,51.49,76.44,51.68Q76.08,51.87,75.85,52.3Q75.62,52.730000000000004,75.62,53.4Q75.62,54.07,75.85,54.5Q76.08,54.93,76.44,55.12Q76.8,55.31,77.21,55.31ZM83.02,50.69Q83.26,50.69,83.465,50.755Q83.67,50.82,83.8,50.92L83.49,51.61Q83.28999999999999,51.49,83.01,51.49Q82.43,51.49,82.06,51.965Q81.69,52.44,81.69,53.35L81.69,56L80.84,56L80.84,50.81L81.6,50.81Q81.6,51.31,81.65,51.66Q82.09,50.69,83.02,50.69ZM84.28,53.4Q84.28,52.62,84.625,52Q84.97,51.38,85.53999999999999,51.035Q86.11,50.69,86.77,50.69Q87.43,50.69,88,51.03Q88.57,51.37,88.91,51.99Q89.25,52.61,89.25,53.4Q89.25,54.19,88.91,54.805Q88.57,55.42,88,55.765Q87.43,56.11,86.77,56.11Q86.11,56.11,85.535,55.765Q84.96000000000001,55.42,84.62,54.805Q84.28,54.19,84.28,53.4ZM85.18,53.4Q85.18,53.99,85.39,54.42Q85.6,54.85,85.96000000000001,55.08Q86.32,55.31,86.77,55.31Q87.22,55.31,87.58,55.08Q87.94,54.85,88.145,54.42Q88.35,53.99,88.35,53.4Q88.35,52.81,88.145,52.38Q87.94,51.95,87.58,51.72Q87.22,51.49,86.77,51.49Q86.32,51.49,85.96000000000001,51.72Q85.6,51.95,85.39,52.38Q85.18,52.81,85.18,53.4ZM90.91,49.88Q90.69,49.88,90.52,49.705Q90.35,49.53,90.35,49.3Q90.35,49.07,90.515,48.895Q90.68,48.72,90.91,48.72Q91.15,48.72,91.315,48.89Q91.48,49.06,91.48,49.3Q91.48,49.54,91.315,49.71Q91.15,49.88,90.91,49.88ZM89.64,58.44Q89.32,58.44,89.02,58.33Q88.72,58.22,88.53,58L89.03999999999999,57.38Q89.28999999999999,57.64,89.62,57.64Q90.49,57.64,90.49,56.41L90.49,50.81L91.34,50.81L91.34,56.44Q91.34,57.14,91.095,57.585Q90.85,58.03,90.465,58.235Q90.08,58.44,89.64,58.44ZM95.05,50.69Q95.72,50.69,96.225,51.005Q96.73,51.32,97,51.86Q97.27,52.4,97.27,53.06Q97.27,53.34,97.23,53.57L93.49,53.57Q93.53999999999999,54.46,94,54.894999999999996Q94.46000000000001,55.33,95.16,55.33Q96.03,55.33,96.42,54.63L97.07,55Q96.87,55.53,96.325,55.82Q95.78,56.11,95.11,56.11Q94.41,56.11,93.83500000000001,55.79Q93.26,55.47,92.925,54.855000000000004Q92.59,54.24,92.59,53.38Q92.59,52.55,92.925,51.94Q93.26,51.33,93.82,51.01Q94.38,50.69,95.05,50.69ZM95.0253,51.47Q94.4633,51.47,94.0469,51.83Q93.6305,52.19,93.52,52.88L96.33,52.88Q96.33,52.21,95.9687,51.84Q95.6075,51.47,95.0253,51.47ZM100.53999999999999,55.31Q101.3,55.31,101.73,54.63L102.4,55.019999999999996Q102.12,55.57,101.645,55.84Q101.17,56.11,100.56,56.11Q99.86,56.11,99.28999999999999,55.769999999999996Q98.72,55.43,98.39,54.815Q98.06,54.2,98.06,53.4Q98.06,52.6,98.39,51.985Q98.72,51.37,99.28999999999999,51.03Q99.86,50.69,100.56,50.69Q101.17,50.69,101.645,50.96Q102.12,51.230000000000004,102.4,51.78L101.73,52.17Q101.3,51.49,100.53999999999999,51.49Q99.84,51.49,99.4,52Q98.96000000000001,52.51,98.96000000000001,53.4Q98.96000000000001,54.29,99.4,54.8Q99.84,55.31,100.53999999999999,55.31ZM106.11,55.83Q105.7,56.11,105.06,56.11Q103.49,56.11,103.49,54.32L103.49,51.54L102.63,51.54L102.63,50.8L103.49,50.8L103.49,49.35L104.34,49.35L104.34,50.8L105.85,50.8L105.85,51.54L104.34,51.54L104.34,54.22Q104.34,55.31,105.16,55.31Q105.52,55.31,105.83,55.13L106.11,55.83ZM110.1,49.88Q109.87,49.88,109.705,49.705Q109.53999999999999,49.53,109.53999999999999,49.3Q109.53999999999999,49.07,109.705,48.895Q109.87,48.72,110.1,48.72Q110.34,48.72,110.505,48.89Q110.67,49.06,110.67,49.3Q110.67,49.53,110.5,49.705Q110.33,49.88,110.1,49.88ZM110.52000000000001,56L109.67,56L109.67,50.81L110.52000000000001,50.81L110.52000000000001,56ZM114.59,50.69Q115.42,50.69,115.92,51.24Q116.42,51.79,116.42,52.8L116.42,56L115.57,56L115.57,53.04Q115.57,52.3,115.275,51.9Q114.97999999999999,51.5,114.4,51.5Q114.02000000000001,51.5,113.685,51.675Q113.35,51.85,113.14,52.195Q112.93,52.54,112.93,53.05L112.93,56L112.08,56L112.08,50.81L112.84,50.81Q112.84,51.31,112.89,51.67Q113.15,51.19,113.595,50.94Q114.03999999999999,50.69,114.59,50.69ZM120.7,55.83Q120.28999999999999,56.11,119.65,56.11Q118.08,56.11,118.08,54.32L118.08,51.54L117.22,51.54L117.22,50.8L118.08,50.8L118.08,49.35L118.93,49.35L118.93,50.8L120.44,50.8L120.44,51.54L118.93,51.54L118.93,54.22Q118.93,55.31,119.75,55.31Q120.11,55.31,120.42,55.13L120.7,55.83ZM123.72,50.69Q124.39,50.69,124.89500000000001,51.005Q125.4,51.32,125.67,51.86Q125.94,52.4,125.94,53.06Q125.94,53.34,125.9,53.57L122.16,53.57Q122.21000000000001,54.46,122.67,54.894999999999996Q123.13,55.33,123.83,55.33Q124.7,55.33,125.09,54.63L125.74000000000001,55Q125.53999999999999,55.53,124.995,55.82Q124.45,56.11,123.78,56.11Q123.08,56.11,122.505,55.79Q121.93,55.47,121.595,54.855000000000004Q121.25999999999999,54.24,121.25999999999999,53.38Q121.25999999999999,52.55,121.595,51.94Q121.93,51.33,122.49000000000001,51.01Q123.05,50.69,123.72,50.69ZM123.6953,51.47Q123.13329999999999,51.47,122.71690000000001,51.83Q122.3005,52.19,122.19,52.88L125,52.88Q125,52.21,124.6387,51.84Q124.2775,51.47,123.6953,51.47ZM131.56,50.8L131.56,55.67Q131.56,57.18,130.84,57.81Q130.12,58.44,129.13,58.44Q128.36,58.44,127.75999999999999,58.11Q127.16,57.78,126.94,57.18L127.63,56.79Q128.02,57.64,129.14,57.64Q129.87,57.64,130.29,57.2Q130.71,56.76,130.71,55.65L130.71,55.2Q130.42000000000002,55.66,129.975,55.885Q129.53,56.11,129.02,56.11Q128.43,56.11,127.905,55.785Q127.38,55.46,127.055,54.845Q126.72999999999999,54.230000000000004,126.72999999999999,53.4Q126.72999999999999,52.57,127.05,51.95Q127.37,51.33,127.9,51.01Q128.43,50.69,129.02,50.69Q129.54,50.69,130.005,50.94Q130.47,51.19,130.75,51.68Q130.8,51.21,130.8,50.8L131.56,50.8ZM129.12,55.31Q129.77,55.31,130.24,54.85Q130.71,54.39,130.71,53.4Q130.71,52.42,130.24,51.96Q129.77,51.5,129.12,51.5Q128.44,51.5,128.03,52Q127.62,52.5,127.62,53.4Q127.62,54.31,128.03,54.81Q128.44,55.31,129.12,55.31ZM135.28,50.69Q135.52,50.69,135.725,50.755Q135.93,50.82,136.06,50.92L135.75,51.61Q135.55,51.49,135.27,51.49Q134.69,51.49,134.32,51.965Q133.95,52.44,133.95,53.35L133.95,56L133.1,56L133.1,50.81L133.86,50.81Q133.86,51.31,133.91,51.66Q134.35,50.69,135.28,50.69ZM138.84,50.69Q139.72,50.69,140.28,51.225Q140.84,51.76,140.84,52.75L140.84,56L140.09,56Q140.06,55.49,140.05,55.34Q139.81,55.72,139.405,55.915Q139,56.11,138.48000000000002,56.11Q137.98,56.11,137.54500000000002,55.925Q137.11,55.74,136.85,55.375Q136.59,55.01,136.59,54.5Q136.59,53.730000000000004,137.215,53.285Q137.84,52.84,138.82999999999998,52.84Q139.39,52.84,139.99,52.99L139.99,52.9Q139.99,52.17,139.695,51.815Q139.4,51.46,138.8,51.46Q138.32,51.46,138,51.66Q137.68,51.86,137.46,52.25L136.81,51.88Q137.05,51.34,137.595,51.015Q138.14,50.69,138.84,50.69ZM139.99,53.7Q139.36,53.54,138.84,53.54Q138.19,53.54,137.835,53.79Q137.48,54.04,137.48,54.49Q137.48,54.91,137.78,55.144999999999996Q138.07999999999998,55.38,138.56,55.38Q139.15,55.38,139.57,55.035Q139.99,54.69,139.99,54.08L139.99,53.7ZM145.12,55.83Q144.70999999999998,56.11,144.07,56.11Q142.5,56.11,142.5,54.32L142.5,51.54L141.64,51.54L141.64,50.8L142.5,50.8L142.5,49.35L143.35,49.35L143.35,50.8L144.86,50.8L144.86,51.54L143.35,51.54L143.35,54.22Q143.35,55.31,144.17000000000002,55.31Q144.53,55.31,144.84,55.13L145.12,55.83ZM146.41,49.88Q146.18,49.88,146.015,49.705Q145.85,49.53,145.85,49.3Q145.85,49.07,146.015,48.895Q146.18,48.72,146.41,48.72Q146.65,48.72,146.815,48.89Q146.98000000000002,49.06,146.98000000000002,49.3Q146.98000000000002,49.53,146.81,49.705Q146.64,49.88,146.41,49.88ZM146.82999999999998,56L145.98000000000002,56L145.98000000000002,50.81L146.82999999999998,50.81L146.82999999999998,56ZM148.09,53.4Q148.09,52.62,148.435,52Q148.78,51.38,149.35,51.035Q149.92000000000002,50.69,150.57999999999998,50.69Q151.24,50.69,151.81,51.03Q152.38,51.37,152.72,51.99Q153.06,52.61,153.06,53.4Q153.06,54.19,152.72,54.805Q152.38,55.42,151.81,55.765Q151.24,56.11,150.57999999999998,56.11Q149.92000000000002,56.11,149.345,55.765Q148.76999999999998,55.42,148.43,54.805Q148.09,54.19,148.09,53.4ZM148.99,53.4Q148.99,53.99,149.2,54.42Q149.41,54.85,149.76999999999998,55.08Q150.13,55.31,150.57999999999998,55.31Q151.03,55.31,151.39,55.08Q151.75,54.85,151.95499999999998,54.42Q152.16,53.99,152.16,53.4Q152.16,52.81,151.95499999999998,52.38Q151.75,51.95,151.39,51.72Q151.03,51.49,150.57999999999998,51.49Q150.13,51.49,149.76999999999998,51.72Q149.41,51.95,149.2,52.38Q148.99,52.81,148.99,53.4ZM156.81,50.69Q157.64,50.69,158.14,51.24Q158.64,51.79,158.64,52.8L158.64,56L157.79000000000002,56L157.79000000000002,53.04Q157.79000000000002,52.3,157.495,51.9Q157.2,51.5,156.62,51.5Q156.24,51.5,155.905,51.675Q155.57,51.85,155.36,52.195Q155.15,52.54,155.15,53.05L155.15,56L154.3,56L154.3,50.81L155.06,50.81Q155.06,51.31,155.11,51.67Q155.37,51.19,155.815,50.94Q156.26,50.69,156.81,50.69Z"
                    fill="#606266" fill-opacity="1" />
            </g>
        </g>
    </g>
</svg>