<svg width="320" height="1440" xmlns="http://www.w3.org/2000/svg">

    <g>
        <title>Layer 1</title>
        <path transform="rotate(-90 133.991 719.97)" id="svg_1"
            d="m-586.00891,809.82709l48,-37.3c48,-37.7 144,-111.7 240,-128c96,-15.7 192,26.3 288,80c96,53.3 192,117.3 288,128c96,10.3 192,-31.7 288,-64c96,-31.7 192,-53.7 240,-64l48,-10.7l0,-128l-48,0c-48,0 -144,0 -240,0c-96,0 -192,0 -288,0c-96,0 -192,0 -288,0c-96,0 -192,0 -288,0c-96,0 -192,0 -240,0l-48,0l0,224z"
            fill="#F6F8FA" />
    </g>
</svg>