<svg xmlns="http://www.w3.org/2000/svg" xmlns:xlink="http://www.w3.org/1999/xlink" fill="none"
    version="1.1" width="50" height="50" viewBox="0 0 50 50">
    <defs>
        <clipPath id="master_svg0_1925_71547">
            <rect x="0" y="0" width="50" height="50" rx="0" />
        </clipPath>
    </defs>
    <g clip-path="url(#master_svg0_1925_71547)">
        <g>
            <path
                d="M4.780265808105469,18.359375L45.229465808105466,18.359375L45.229465808105466,31.503875L4.780265808105469,31.503875L4.780265808105469,18.359375Z"
                fill="#F95F5D" fill-opacity="1" />
        </g>
        <g>
            <path
                d="M45.229490625,18.3593875L45.229490625,7.885737499999999C45.229490625,6.5869175,44.067390625,5.4296875,42.685590625,5.4296875L7.319340625000001,5.4296875C5.937500625,5.4296875,4.775390625,6.5869175,4.775390625,7.885737499999999L4.775390625,18.3593875L45.229490625,18.3593875Z"
                fill="#55C7F7" fill-opacity="1" />
        </g>
        <g>
            <path
                d="M4.780265808105469,31.50390625L4.780265808105469,41.97750625C4.780265808105469,43.27640625,5.9326058081054684,44.43360625,7.304675808105468,44.43360625L42.705065808105466,44.43360625C44.07716580810547,44.43360625,45.229465808105466,43.27640625,45.229465808105466,41.97750625L45.229465808105466,31.50390625L4.780265808105469,31.50390625Z"
                fill="#7ECF3B" fill-opacity="1" />
        </g>
        <g>
            <path
                d="M20.595706939697266,5.4296875L29.624026939697266,5.4296875L29.624026939697266,44.4335875L20.595706939697266,44.4335875L20.595706939697266,5.4296875Z"
                fill="#FDAF42" fill-opacity="1" />
        </g>
        <g>
            <path
                d="M29.623992877197267,22.3339834375L29.623992877197267,27.8222634375L20.166022877197264,27.8222634375L20.166022877197264,22.3339834375L29.623992877197267,22.3339834375ZM31.142592877197266,20.0927734375L18.647463877197264,20.0927734375C18.432620877197266,20.0927734375,18.071292877197266,20.3076164375,18.071292877197266,20.6689444375L18.071292877197266,29.409183437499998C18.071292877197266,29.6240234375,18.286135877197264,29.985353437500002,18.647463877197264,29.985353437500002L31.142592877197266,29.985353437500002C31.357392877197263,29.985353437500002,31.718792877197266,29.7705034375,31.718792877197266,29.409183437499998L31.718792877197266,20.6689444375C31.577192877197266,20.2392574375,31.357392877197263,20.0927734375,31.142592877197266,20.0927734375Z"
                fill="#FFFFFF" fill-opacity="1" />
        </g>
    </g>
</svg>